<svg width="45" height="39" viewBox="0 0 45 39" fill="none" xmlns="http://www.w3.org/2000/svg">
<path opacity="0.8" d="M37.4375 8.89266L40.0871 9.88205C41.6264 10.4568 42.8296 11.6876 43.3694 13.2395V13.2395C43.7778 14.4138 43.7778 15.6915 43.3694 16.8658L43.2977 17.0719C42.7982 18.5081 41.746 19.6854 40.3748 20.3424V20.3424C39.8295 20.6037 39.3293 20.95 38.8928 21.3684L38.069 22.1579L36.5862 23.5789M36.5862 23.5789L37.6634 4.99709C37.8261 2.19033 34.6607 0.449815 32.3778 2.09075V2.09075C32.2182 2.20547 32.0488 2.30587 31.8715 2.39081L26.2069 5.10526L23.6886 5.90976C22.4097 6.31833 21.0752 6.52632 19.7326 6.52632H12.8621M36.5862 23.5789L36.1861 24.1541C34.7533 26.2139 31.9493 26.7742 29.8349 25.4233V25.4233C29.3963 25.1431 28.914 24.9381 28.4079 24.8168L23.2414 23.5789L17.3103 22.1579M6.93103 22.1579L4.84455 21.1581C2.49502 20.0322 1 17.658 1 15.0526V15.0526V12.7372C1 11.4692 1.38814 10.2315 2.11225 9.19052V9.19052C3.27329 7.52145 5.17774 6.52632 7.21092 6.52632H11.3793H12.8621M6.93103 22.1579L8.14191 26.7998C8.32286 27.4935 8.56087 28.171 8.85351 28.8254L12.8621 37.7895C14.8391 38.2632 17.3103 37.7895 18.7931 37.7895C19.9793 37.7895 17.3103 29.7368 17.3103 26.4211V22.1579M6.93103 22.1579H17.3103M6.93103 22.1579H12.8621M17.3103 22.1579H12.8621M12.8621 22.1579V6.52632" stroke="white" stroke-opacity="0.8"/>
</svg>
