<svg width="53" height="57" viewBox="0 0 53 57" fill="none" xmlns="http://www.w3.org/2000/svg">
<g opacity="0.8">
<rect x="17.4055" y="53.2166" width="17.4055" height="2.90092" fill="white"/>
<rect x="17.4055" y="47.4147" width="17.4055" height="2.90092" fill="white"/>
<path d="M40.1129 21.3065C40.1129 25.2086 38.521 30.9282 35.9259 35.6742C34.6308 38.0429 33.1006 40.1412 31.4211 41.6412C29.7406 43.1421 27.9464 44.0138 26.1083 44.0138C24.2703 44.0138 22.476 43.1421 20.7956 41.6412C19.1161 40.1412 17.5859 38.0429 16.2908 35.6742C13.6957 30.9282 12.1038 25.2086 12.1038 21.3065C12.1038 16.3419 13.6873 12.8626 16.1861 10.6187C18.6942 8.36653 22.1881 7.30188 26.1083 7.30188C30.0286 7.30188 33.5224 8.36653 36.0306 10.6187C38.5294 12.8626 40.1129 16.3419 40.1129 21.3065Z" stroke="white" stroke-opacity="0.8"/>
<rect x="17.4055" y="41.6129" width="17.4055" height="2.90092" fill="white"/>
<line x1="37.5351" y1="6.6251" x2="43.337" y2="0.823271" stroke="white" stroke-opacity="0.8" stroke-width="0.5"/>
<line x1="14.3279" y1="6.97866" x2="8.52603" y2="1.17682" stroke="white" stroke-opacity="0.8" stroke-width="0.5"/>
<line x1="8.87941" y1="33.0868" x2="5.9785" y2="35.9877" stroke="white" stroke-opacity="0.8" stroke-width="0.5"/>
<line x1="46.238" y1="35.9878" x2="43.3371" y2="33.0869" stroke="white" stroke-opacity="0.8" stroke-width="0.5"/>
<line x1="52.2176" y1="21.5564" x2="43.5148" y2="21.5913" stroke="white" stroke-opacity="0.8" stroke-width="0.5"/>
<line x1="8.70264" y1="21.5564" x2="-0.000110626" y2="21.5564" stroke="white" stroke-opacity="0.8" stroke-width="0.5"/>
<path d="M28.8624 20.9171C29.618 21.3937 30.135 21.9989 30.2023 22.6195C29.8237 22.8802 29.5445 23.3692 29.3258 23.9589C29.0746 24.6362 28.8804 25.5106 28.7232 26.5025C28.4088 28.4876 28.2355 30.9927 28.0694 33.4371L28.0606 33.5676C27.8972 35.974 27.7385 38.3098 27.4588 40.0548C27.3161 40.9451 27.1447 41.6622 26.9337 42.1512C26.7123 42.6641 26.4992 42.8133 26.3302 42.8133C26.2444 42.8133 26.1595 42.7793 26.067 42.6804C25.9693 42.5759 25.8719 42.4071 25.7809 42.1629C25.5988 41.6749 25.4675 40.9583 25.369 40.0669C25.2227 38.7436 25.1531 37.0851 25.0787 35.3112C25.053 34.6989 25.0267 34.0728 24.9965 33.442C24.8793 30.9952 24.703 28.4828 24.2657 26.4881C24.0471 25.491 23.7602 24.6082 23.3736 23.923C23.025 23.305 22.5838 22.828 22.0206 22.5882C22.0631 22.323 22.2043 22.0555 22.4345 21.7923C22.7134 21.4735 23.109 21.1776 23.5644 20.924C24.4796 20.4146 25.5812 20.106 26.3302 20.106C27.0754 20.106 28.0622 20.4122 28.8624 20.9171Z" stroke="white" stroke-opacity="0.8" stroke-width="0.5"/>
</g>
</svg>
